<svg xmlns="http://www.w3.org/2000/svg" viewBox="0 0 575.92 545.63"><defs><style>.cls-1,.cls-3{font-size:90px;}.cls-1{fill:#231f20;}.cls-1,.cls-2,.cls-3{font-family:Leather;}.cls-2{font-size:100px;}.cls-2,.cls-3,.cls-4{fill:#fde800;}.cls-4{font-size:60px;font-family:BebasNeue-Regular, Bebas Neue;}.cls-5{letter-spacing:0em;}</style></defs><title>callig1</title><g id="Layer_2" data-name="Layer 2"><text class="cls-1" transform="matrix(1, 0, 0.18, -0.98, 244.89, 455.01)"> </text><text class="cls-2" transform="matrix(1, 0, 0.35, -0.94, 191.89, 442.27)">L</text><text class="cls-2" transform="matrix(1, 0, 0.53, -0.85, 180.48, 426.89)">I</text><text class="cls-2" transform="matrix(1, 0, 0.68, -0.73, 133.03, 405.82)">L</text><text class="cls-3" transform="matrix(1, 0, 0.8, -0.6, 129.9, 383.88)"> </text><text class="cls-3" transform="matrix(1, 0, 0.89, -0.46, 94.36, 357.69)">L</text><text class="cls-3" transform="matrix(1, 0, 0.95, -0.3, 99.91, 328.15)">I</text><text class="cls-3" transform="matrix(1, 0, 0.99, -0.13, 75.2, 296.96)">L</text><text class="cls-3" transform="matrix(1, 0, 0.99, 0.13, 73.24, 248.57)">Y</text><text class="cls-3" transform="matrix(1, 0, 0.95, 0.3, 100.94, 216.89)"> </text><text class="cls-3" transform="matrix(1, 0, 0.89, 0.46, 92.36, 186.83)">A</text><text class="cls-3" transform="matrix(1, 0, 0.79, 0.61, 130.71, 159.36)"> </text><text class="cls-2" transform="matrix(1, 0, 0.67, 0.75, 133.19, 136.51)">P</text><text class="cls-2" transform="matrix(1, 0, 0.42, 0.91, 178.74, 107.27)">E</text><text class="cls-2" transform="matrix(1, 0, 0.15, 0.99, 228.66, 92.38)">L</text><text class="cls-2" transform="matrix(1, 0, -0.13, 0.99, 279.58, 91.76)">L</text><text class="cls-2" transform="matrix(1, 0, -0.31, 0.95, 333.52, 99.08)"> </text><text class="cls-3" transform="matrix(1, 0, -0.47, 0.88, 345.98, 107.58)">L</text><text class="cls-3" transform="matrix(1, 0, -0.61, 0.79, 390.67, 124.89)">I</text><text class="cls-3" transform="matrix(1, 0, -0.74, 0.68, 396.5, 146.57)">L</text><text class="cls-3" transform="matrix(1, 0, -0.89, 0.46, 422.46, 186.08)">Y</text><text class="cls-3" transform="matrix(1, 0, -0.98, 0.21, 439.3, 232.92)">A</text><text class="cls-3" transform="matrix(1, 0, -1, 0.04, 464.24, 265.2)"> </text><text class="cls-3" transform="matrix(1, 0, -0.99, -0.14, 441.8, 297.68)">P</text><text class="cls-3" transform="matrix(1, 0, -0.92, -0.39, 429.97, 344.72)">E</text><text class="cls-3" transform="matrix(1, 0, -0.84, -0.54, 434.94, 372.56)"> </text></g><g id="Layer_3" data-name="Layer 3"><text class="cls-4" transform="translate(220.88 250.46) scale(3 1.1)"><tspan class="cls-5">L</tspan><tspan x="20.4" y="0">O</tspan><tspan x="-1.53" y="65.45">GO</tspan></text></g></svg>