<?xml version="1.0" encoding="utf-8"?>
<!-- Generator: Adobe Illustrator 23.0.4, SVG Export Plug-In . SVG Version: 6.00 Build 0)  -->
<svg version="1.1" xmlns="http://www.w3.org/2000/svg" xmlns:xlink="http://www.w3.org/1999/xlink" x="0px" y="0px"
	 viewBox="0 0 392.5 609.6" style="enable-background:new 0 0 392.5 609.6;" xml:space="preserve">
<style type="text/css">
	.st0{fill:#9B6C21;}
	.st1{fill:#91C134;}
	.st2{fill:#5B3C10;}
	.st3{fill:#AA9024;}
</style>
<g id="Layer_2">
</g>
<g id="Layer_1">
	<title>svgtest</title>
	<g id="Layer_3">
		<path class="st0" d="M214.5,489.2h-92.9c-5.1,0-12.6-3.9-12.6-8.9l-9.3-101.5c0-5.1,4.1-9.2,9.2-9.2h115.8c5.1,0,9.2,4.1,9.2,9.2
			l-7.7,95.1C226.3,479,219.6,489.2,214.5,489.2z"/>
		<path class="st0" d="M233.8,366.3H100.4c-4.2,0-5.7-3.4-5.7-7.6l0,0c0-4.2,1.4-7.6,5.7-7.6h133.4c4.2,0,5.2,3.4,5.2,7.6l0,0
			C239,362.9,238,366.3,233.8,366.3z"/>
	</g>
	<g>
		<path class="st1" d="M96.9,365.4"/>
		<path class="st2" d="M164.4,306.9c2.4-7.1,1.8-20.1,1.6-27.4c-0.1-4.1,7.2-14.7,3.8-17c0.7,0.4-11.4,6.1-4.4-30.8
			c0.6-3.2-0.1-6.6-0.1-9.9c-0.1-11.6-2.3-23.3-2.5-34.9c-0.1-12.7,7.5-26.2,4-38.4c-4.2-14.7-2.6-39-2.8-58.7
			c0-1.6-0.1-3.4-1.4-4.4c-1.3-1-3.7,0.3-3,1.7L156.1,75c-3.6,8.4,10.4,24.9,1.2,32.2c-4.4,3.4,2.6,15.2,1.2,21.1
			c-3.1,14.1-5.2,29.9-4.3,44.9c-1.6-1.6-2-0.5-2.4,4.1c4.8,13.3,2.7,28.3,4.8,44.4c-1.9-1.9-4.2,1.9-4.2,4.6
			c0,8.3,7.2,25.1,7.2,33.4c0,3.9-7.2-0.7-5.6,2.9c1.6,3.8,4.9,6.7,6,10.7c3,10-8.7,19.8-6.6,30c0.7,3.3,2.7,6.2,3.9,9.4
			c2,5.7,1.5,20.5,5.9,30.8C165.9,349.8,162.2,313.4,164.4,306.9z"/>
		<path class="st3" d="M183.7,239.6c0.6,6.6-1.8,13.1-2.6,19.7c-0.4,3.1-0.3,6.6,1.9,8.8s7,1.2,7.1-1.9c4.2,7.2,4.9,16,2,23.8
			c-1.3,3.6-3.4,6.9-4.6,10.5c-1.1,3.6-1.2,8,1.3,10.9s7.9,3.2,9.8-0.1c3.7,5.3-1,14.4,4.1,18.3c3.8,2.9,9.4-0.1,14,1.4l-0.6-3.3
			c4.5-2.4,9.9,0.8,13.5,4.5c3.6,3.6,7.2,8.1,12.3,8.5c5.7-8.1,4-20.4-3.7-26.6c3.2-3.5,8.8-3.8,12.1-7.2c5.2-5.3,1.9-14.4-3-20
			c-4.9-5.6-11.5-10.5-12.8-17.8c-0.6-3.2-0.1-6.4,0-9.7c0.3-17.8-15.3-34.4-33.1-35.1c-5.1-0.2-10.3,0.7-15.3-0.6
			c-2.8-0.7-5.5-2.1-8.4-2c-2.5,0-4.8,1.4-6.1,3.6C176.8,229.7,182.9,230.9,183.7,239.6z"/>
		<path class="st3" d="M135.1,300.3c0.5,1.4,1,3.1,0.2,4.4c-0.5,0.7-1.1,1.2-1.8,1.7c-6.5,5.5-0.6,18.7-7.8,23.3
			c-1.4,0.9-3.2,1.3-4.6,2.3c-1.8,1.4-2.5,3.8-3.8,5.7c-1.2,1.9-3.7,3.6-5.7,2.5c-0.6-6.9,0.5-13.9,3.1-20.3
			c1.4-3.5,3.3-6.9,4.2-10.6c1.9-8-1.1-16.2-2.4-24.3c-0.6-4.6-1-9.2-1.1-13.8c-0.2-4.9-0.2-10.4,3.1-14c2.1-2.4,5.3-3.6,8.3-4.7
			c1.7-0.6,3.5-1.2,5.2-0.7c1.7,0.5,3,2.6,2.1,4.1c1.5,1,3.6,0.5,5.4,0c13.5-3.9-0.6,12-2.3,15.4C132.8,280.3,132,290.7,135.1,300.3
			z"/>
		<path class="st3" d="M171,307.7c-0.1,0.7,0.2,1.4,0.6,1.9c0.5,0.4,1.2,0.7,1.8,0.8c2.1,0.7,3.6,2.8,4.1,4.9
			c0.4,2.2,0.5,4.5,0.1,6.7h3.2c-3.1-9.7-2.7-20.3,1.2-29.8c1.1-2.7,2.6-5.7,1.8-8.5c-0.5-1.5-1.4-2.9-2.5-4.1l-3.7-4.5
			C184.1,282.9,170.8,299.2,171,307.7z"/>
		<path class="st3" d="M128,146.3c-7,3.9-11.8,10.9-13,18.8l6.3,0.4c-1.4,4.4-5.7,7.1-9.5,9.7s-7.7,6.4-7.4,11l5.7,1.1
			c0.3,3-2.7,5.1-5,7.2c-3.2,3-5.1,7.1-5.4,11.5c-0.1,2.6,0.5,5.6,2.7,7.1c0.9,0.6,2,0.9,2.7,1.7c0.9,1.1,0.9,2.6,0.9,4l-0.4,11.6
			c4.6,2.6,10.2-0.3,14.7-3.2c2.2-1.4,4.5-2.9,5.9-5.2c3.2-5.2,0.5-11.8,0.4-17.9c-0.1-6.2,2.5-12.1,7.1-16.2
			c0.8-0.8,1.9-1.4,3.1-1.4c1.1,0,2.3,1.2,1.8,2.3c2.8-4.8,3.8-10.4,2.9-15.9l3.5,0.1c-0.5,0,6.9-24.2,6-26.2
			C147.6,139.8,132.9,143.6,128,146.3z"/>
		<path class="st3" d="M174.6,195.3c1.4,2.5,1.4,5.5,1.2,8.3c3.6-1.3,7.9,2.1,7.7,5.9c-0.1,0.6-0.1,1.2,0.1,1.8
			c0.8,1.6,3.3,0.3,3.7-1.4c0.4-1.7-0.1-3.6,0.8-5.2c2.1-3.5,8.4-0.7,11-3.7c1.3-1.5,1-4-0.3-5.5c-1.4-1.4-3.4-2.2-5.4-2.2
			c-1.2,0-2.5,0.1-3.5-0.6c-1.3-0.9-1.5-2.7-2.5-4c-1.3-1.6-3.6-1.7-5.7-1.6l-7.4,0.1c-1.8,0-6.1,0.4-6.3,3
			C167.7,192.7,173.2,193,174.6,195.3z"/>
		<path class="st3" d="M192.2,151.7c2.1,6.5,0.5,14,1.2,21c0,0.9,0.3,1.7,0.7,2.3c1,1.1,2.4-0.1,3.7-0.1c1.7,0,2.9,2.3,3,4.5
			c0.2,2.2-0.4,4.4-0.7,6.6c-0.3,2.2-0.4,4.6,0.5,6.6c0.9,1.9,3,2.9,4.4,1.5c0.5-0.6,0.9-1.3,1.3-2c2.5-3.4,7.2-0.1,10.3-2.4
			l-0.5-12.1c-0.1-1,0-2,0.2-2.9c0.4-0.9,0.8-1.7,1.4-2.3c2.8-3.6,4.7-8.1,5.6-13.1c0.2-0.7,0.2-1.4,0-2.1c-0.3-1-1.2-1.5-1.9-2
			c-3-2.1-4.9-6.3-4.9-10.8c-4.8,1.5-8.8-4.9-13.2-8c-2.3-1.4-4.7-2.3-7.2-2.7c-5.2-1.1-10.4-1.4-15.6-1c-1.5,0.1-6.8,1-6.1,4.4
			c0.4,2.1,5.5,2.7,6.9,3.3C185.7,142.5,190.2,145.6,192.2,151.7z"/>
		<path class="st3" d="M133.4,89.9c-5.5,3.7-7,11.8-13,14.6c-1.8,0.8-4.3,1.9-3.8,3.8c1.5-0.3,3.4-0.2,3.9,1.1
			c0.6,1.6-1.5,2.8-3,3.6c-2.7,1.3-5.2,4-4.8,7l4.6,0.2l-1.4,9l3.4,0.7c0.1-5.1,4.2-9.2,9.4-9.2c1.2,0,2.4,0.3,3.5,0.7
			c1.4-3.8-1.4-9,1.7-11.6c2.3-1.9,6.2-0.5,8.6-2.4c1.9-1.5,1.9-4.4,2.6-6.7s2.4-4.2,3.5-6.3C153.4,84.9,138,86.7,133.4,89.9z"/>
		<path class="st3" d="M221.5,515.5c2.1,1.4,3.7,3.5,5.7,5c2,1.5,5,2.3,7,0.8l-1.5-3.8c7.5-1.2,13.9,4.8,20.7,8.2
			c1.1,0.7,2.3,1,3.6,0.8c1.2-0.2,2.1-1.1,3.1-1.6c4.7-2.5,10.1,1.1,15.1,2.7c7.3,2.4,15.1,0.6,22.6-1.1c1.9-0.3,3.8-1,5.5-2
			c2-1.2,3.7-3.4,6-3.4c-0.5-6.1-7.6-9.5-13.8-9.8c-6.2-0.3-12.6,1.1-18.3-1.1l4.8-3.8c-11.5-4.3-23.9,5.7-36,3.7
			c-0.2-1.3,0-2.7,0.5-4c0.7-1.2,2.4-1.8,3.4-1c-9.2-5.2-20.7-3-31-0.6l-17.4,4c-2.3,0.5-4.3,1.1-5.9,2.8
			C200.2,517.9,214.7,511,221.5,515.5z"/>
		<path class="st3" d="M252.2,494.2c2.6,0.3,4.2-3.2,6.8-3.8c2.6-0.6,5,2.3,7.7,2.5c3.1,0.3,5.5-2.9,8.6-3.5
			c1.7-0.4,3.9-0.2,4.8-1.7c0.8-1.3-0.1-3-1.2-3.9s-2.6-1.6-3.4-2.8c-1.4-1.8-1.1-4.4-0.8-6.7c-1.9-1.7-4.8-1.2-7.1-0.2
			c-2.3,1-4.6,2.4-7.1,2.4c-1.5,0-3-0.6-4.5-0.3c-1.9,0.4-3.3,2-5.1,2.8c-2.7,1.2-5.9,0.3-8.8,0.7c-3.8,0.5-7,3.3-10.8,3.4
			c-1.4,0-2.8-0.3-4.1,0.2c-1.3,0.5-2.3,2.2-1.3,3.2c1.9,2,13,0.3,16,1.1C245.5,488.5,248.9,493.8,252.2,494.2z"/>
		<path class="st3" d="M117.5,530.2c-0.2,2.5-0.6,5.2-2.4,6.9c-2.6,2.4-6.8,1.7-9.9,3.2c-3,1.4-4.7,4.5-6.6,7.2
			c-1.9,2.7-4.7,5.3-8,5c-3.6-0.4-6.2-4.3-9.8-4.3c-4.7,0-7.4,6.5-12.1,6.6c-1.9,0.1-3.7-1-5.6-1.2c-3.4-0.3-6.5,2.1-8.8,4.6
			c-1.2,1.4-2.6,2.9-4.4,2.8c-2.8-0.2-3.5-4.4-1.9-6.8c1.6-2.4,4.3-3.9,5.8-6.3c1.5-2.4,0.7-6.7-2.2-6.7c3.5-2,7.2-4.2,8.8-7.9
			c1.6-3.7-0.2-9-4.2-9.4c1.6-3.6,6.6-3.4,10.5-3.3c3.9,0.2,9.1-1.5,8.8-5.4c-0.1-0.9-0.5-1.8-0.5-2.7c0-2.9,3.9-4.2,6.7-3.3
			c6.1,1.9,8.8,4.7,15.6,3.3c4.2-0.8,8-4,12.1-4.6C123.1,506.1,118.3,521.4,117.5,530.2z"/>
	</g>
</g>
</svg>
