<?xml version="1.0" encoding="utf-8"?>
<!-- Generator: Adobe Illustrator 23.0.4, SVG Export Plug-In . SVG Version: 6.00 Build 0)  -->
<svg version="1.1" id="Layer_1" xmlns="http://www.w3.org/2000/svg" xmlns:xlink="http://www.w3.org/1999/xlink" x="0px" y="0px"
	 viewBox="0 0 392.5 609.6" style="enable-background:new 0 0 392.5 609.6;" xml:space="preserve">
<style type="text/css">
	.st0{fill:#09720C;}
	.st1{fill:#0A6029;}
	.st2{fill:#26AA2F;}
	.st3{fill:#49D83D;}
</style>
<g>
	<title>svgtest</title>
	<g id="Layer_3">
		<path class="st0" d="M219.4,492.9h-92.9c-5.1,0-12.6-3.9-12.6-8.9l-9.3-101.5c0-5.1,4.1-9.2,9.2-9.2h115.8c5.1,0,9.2,4.1,9.2,9.2
			l-7.7,95.1C231.2,482.6,224.5,492.9,219.4,492.9z"/>
		<path class="st0" d="M238.7,369.9H105.3c-4.2,0-5.7-3.4-5.7-7.6l0,0c0-4.2,1.4-7.6,5.7-7.6h133.4c4.2,0,5.2,3.4,5.2,7.6l0,0
			C243.9,366.5,242.9,369.9,238.7,369.9z"/>
	</g>
	<g>
		<path class="st1" d="M100.9,368.6"/>
		<path class="st2" d="M171.4,341.6c-0.6-3.9-1.5-4.9-0.6-6.4c0.9-1.6,3.3-3.1,3-3.6c-0.1-0.1-0.3-0.3-0.6-0.5
			c-0.1-0.1-0.3-0.2-0.5-0.3c-0.5-0.3-0.8-0.4-0.9-0.5c-0.9-0.4-0.9-4.1-1-5.9c-0.1-3.2-0.4-3.4-0.1-5.1c0.2-1.4,0.5-1.7,0.6-2.9
			c0.1-2-0.4-3.4-0.7-4.3c-1.1-3.8,1.4-4.2,1-9.2c-0.2-3.1-1.4-5.1-0.3-7.9c0.2-0.5,0.4-0.7,0.5-1.3c0.6-2.4-0.7-4.2-0.6-5.5
			c0-0.1,0-0.4-0.2-0.7c-0.1-0.1-0.3-0.4-0.6-0.4c-0.3,0-0.3,0.3-0.6,0.3c-0.4,0-0.5-0.5-1-0.9c-0.4-0.3-1.2-0.6-1.5-0.4
			c-0.5,0.3,0,2.1,1,3.4c0.5,0.7,0.9,1.1,0.9,1.7c0,0.5-0.4,0.6-0.5,1.3c-0.1,0.5,0.1,0.6,0.3,1.5c0.2,1,0.3,1.4,0.1,1.9
			c-0.2,0.8-0.7,0.9-0.9,1.7c-0.2,0.8,0.2,1.4,0.4,1.7c1.2,2.3,2,8.2,0.2,9.1c-0.8,0.4-1.7-0.4-2.3,0.1c-0.6,0.5-0.2,1.6,0.1,2.5
			c0.6,2.3,1.1,4,1.4,4.9c0.8,2.7,1.1,3.6,0.7,4.8c-0.5,1.7-1.4,1.5-1.7,2.9c-0.6,2.8,2.9,5.3,1.9,6.3c-0.4,0.5-1.4,0.4-1.5,0.9
			c0,0.2,0.2,0.4,0.4,0.6c0,0,0.5,0.5,1.4,1.9c0.9,1.4-1.6,3.2-2,6.2c-0.1,0.4,0.1,1.5,0.5,3.5c0,0,0.9,5.2,3.6,7.8
			C171.8,350.7,172,345.9,171.4,341.6z"/>
		<path class="st3" d="M183.3,329c2.5-0.1,5.1,0.7,7.4,1.7c-0.3-2.7,3.7-4.4,6.9-3.1c0.5,0.2,1,0.4,1.6,0.5c1.5,0,1.1-2-0.3-2.7
			c-1.4-0.8-3.1-1-4.2-2c-2.5-2.3,1.4-5.5-0.5-8c-1-1.3-3.2-1.8-4.8-1.4c-1.5,0.5-2.7,1.5-3.2,2.8c-0.3,0.7-0.6,1.6-1.3,2
			c-1.1,0.5-2.7,0.1-4,0.4c-1.7,0.3-2.3,1.8-2.7,3.1l-1.7,4.7c-0.4,1.1-1.1,3.9,1,4.8C179.4,332.6,181,329.2,183.3,329z"/>
		<path class="st3" d="M156.1,273.2c-0.8,0.9-1.2,1.4-1.1,1.6c0.2,1,3.2,1.5,3.1,2.1c-0.1,0.2-0.5,0.2-0.8,0.6
			c-0.1,0.1-0.4,0.5-0.2,0.8c0.2,0.3,1,0.1,2,0.6c0.5,0.2,1.1,0.5,1,0.7c-0.1,0.3-1.9-0.3-2.4,0.2c-0.3,0.3,0,0.9,0.3,1.2
			c1,1.1,2.4,0.7,4.2,1.7c1.6,0.9,1.8,1.9,2.7,1.9c0.6,0,1-0.7,1.1-0.8c0.8-1.4-1.6-2.8-0.7-4.1c0.4-0.5,0.9-0.3,1.1-0.8
			c0.7-1.1-1.7-2-1.6-3.6c0.1-1.4,2-1.7,1.7-2.8c-0.2-0.8-1.4-1.3-2.4-1.7c-1.1-0.5-2.3-0.7-2.6-0.7c-0.2,0-0.1,0-0.7-0.1
			c-1.7-0.2-2.2-0.4-2.6-0.2c-0.1,0.1-0.2,0.2-0.4,0.5c-0.3,0.6-0.3,1-0.4,1.3C157.3,271.9,157.1,272,156.1,273.2z"/>
		<path class="st3" d="M196,303c1.8-0.2,0.9-3.6,2.2-4.6c1.3-1,4.4,1.1,6.3,0.9c2.2-0.3,1.9-3.5,3.4-4.6c0.8-0.7,2.4-0.9,2-2.4
			c-0.2-1.3-1.7-2.6-2.9-3.2c-1.2-0.6-2.6-1-3.7-1.9c-1.9-1.3-3.2-3.7-4.3-5.8c-2.2-1.1-3.7-0.2-4.6,1.1c-0.9,1.3-1.5,3-3.1,3.4
			c-1,0.3-2.2,0-3.1,0.5c-0.9,0.7-1,2.4-1.7,3.4c-1,1.6-3.5,1.3-5.2,2.2c-2.1,1.2-2.5,4.2-4.9,5c-0.9,0.2-1.9,0.3-2.5,0.9
			c-0.5,0.7-0.2,2.4,1,3c2.3,1.5,8.4-2,10.8-1.8C188.6,299.1,193.7,303.2,196,303z"/>
		<path class="st3" d="M163.1,323.3c2.5-1.7,0.1-6.7-1.1-8.6l-4.7-8.2c-1.3-2.3-2.8-4.8-5.3-5.4c-2-0.4-3.9,0.5-5.6-0.5
			c-1.3-0.7-2.1-2.2-2.9-3.6c-1.3-2.2-3.4-4-5.7-4.8c-2.3-0.6-5,0.5-5.7,2.8c-0.6,2.2,2.2,3.8,1.5,7c-0.2,1.1-0.7,1.4-0.6,2.3
			c0.3,1.9,2.8,2.4,2.6,3.4c-0.1,1.4-4.7,1.3-5.4,3.4c-0.3,0.9,0.2,2,0.8,2.9c0.2,0.4,0.5,0.9,1.1,1.4c1.1,1.1,2.6,1.2,3.1,1.2
			c1.2-0.3,3.1-0.5,4.8,0.4c2.7,1.5,2.4,4.4,4.4,5.2c2.7,1.1,4.7-3.4,9.1-3.4C158.4,318.9,161.3,324.5,163.1,323.3z"/>
	</g>
</g>
</svg>
