<?xml version="1.0" encoding="utf-8"?>
<!-- Generator: Adobe Illustrator 23.0.4, SVG Export Plug-In . SVG Version: 6.00 Build 0)  -->
<svg version="1.1" id="Layer_1" xmlns="http://www.w3.org/2000/svg" xmlns:xlink="http://www.w3.org/1999/xlink" x="0px" y="0px"
	 viewBox="0 0 392.5 609.6" style="enable-background:new 0 0 392.5 609.6;" xml:space="preserve">
<style type="text/css">
	.st0{fill:#15A023;}
	.st1{fill:#0A6029;}
	.st2{fill:#1C9143;}
</style>
<g>
	<title>svgtest</title>
	<g id="Layer_3">
		<path class="st0" d="M209.4,497.5h-92.9c-5.1,0-12.6-3.9-12.6-8.9l-9.3-101.5c0-5.1,4.1-9.2,9.2-9.2h115.8c5.1,0,9.2,4.1,9.2,9.2
			l-7.7,95.1C221.2,487.2,214.5,497.5,209.4,497.5z"/>
		<path class="st0" d="M228.7,374.5H95.3c-4.2,0-5.7-3.4-5.7-7.6l0,0c0-4.2,1.4-7.6,5.7-7.6h133.4c4.2,0,5.2,3.4,5.2,7.6l0,0
			C233.9,371.1,232.9,374.5,228.7,374.5z"/>
	</g>
	<g>
		<path class="st1" d="M90.9,373.2"/>
		<path class="st2" d="M158.4,314.7c2.4-7.1,1.8-20.1,1.6-27.4c-0.1-4.1,7.2-14.7,3.8-17c0.7,0.4-11.4,6.1-4.4-30.8
			c0.6-3.2-0.1-6.6-0.1-9.9c-0.1-11.6-2.3-23.3-2.5-34.9c-0.1-12.7,7.5-26.2,4-38.4c-4.2-14.7-2.6-39-2.8-58.7
			c0-1.6-0.1-3.4-1.4-4.4c-1.3-1-3.7,0.3-3,1.7l-3.5-12.1c-3.6,8.4,10.4,24.9,1.2,32.2c-4.4,3.4,2.6,15.2,1.2,21.1
			c-3.1,14.1-5.2,29.9-4.3,44.9c-1.6-1.6-2-0.5-2.4,4.1c4.8,13.3,2.7,28.3,4.8,44.4c-1.9-1.9-4.2,1.9-4.2,4.6
			c0,8.3,7.2,25.1,7.2,33.4c0,3.9-7.2-0.7-5.6,2.9c1.6,3.8,4.9,6.7,6,10.7c3,10-8.7,19.8-6.6,30c0.7,3.3,2.7,6.2,3.9,9.4
			c2,5.7,1.5,20.5,5.9,30.8C159.9,357.6,156.2,321.2,158.4,314.7z"/>
		<path class="st1" d="M141.4,206.9c0.2-2.5-0.8-5-2.9-6.5c-2.3-1.8-5.3-2.2-8-3.3c-4.8-1.9-8.5-5.6-12.8-8.4
			c-14.9-9.8-37.2-5.4-47.4,9.2c-1.8,2.7-3.3,5.6-5.7,7.9c-5.3,5.2-13.5,5.3-20.8,7c-7.2,1.7-15.2,7.2-14.1,14.5
			c0.7,4.7,5.1,8.2,5.6,12.9c-9.9,0.5-18.4,9.5-18.5,19.4c4.4,2.7,9.9,1.1,14.9,0.3c5.1-0.9,11.3-0.4,13.6,4.2
			c-1.1,0.5-2.3,1.3-2.4,2.3c-0.4,2.8,6.3,7.3,12.2,7c5.9-0.2,11.3-5.3,14-12.5c-0.4,3.8,4.2,6.7,7.9,5.8c3.7-0.9,6.2-4.5,7.4-8.1
			c1.1-3.6,1.3-7.5,2.4-11.2c2.2-8,7.9-14.8,15.5-18.2c-1.7,2.6,1.6,6.2,4.7,5.7s5.2-3.3,6.7-6c3.2-5.8,5-12.5,9.4-17.5
			C128.9,204.8,134.6,207.4,141.4,206.9z"/>
		<path class="st1" d="M251.3,220.7c-1.3,0.7-2.9,1.5-4.3,1c-0.8-0.4-1.4-0.9-2-1.5c-6.6-5.4-18.5,2.7-24.3-3.6
			c-1.1-1.2-1.8-2.9-3.1-4.1c-1.7-1.5-4.2-1.8-6.3-2.7c-2.1-0.8-4.2-3-3.5-5.2c6.7-1.8,13.8-2,20.5-0.5c3.7,0.8,7.4,2,11.2,2.3
			c8.2,0.5,15.8-3.9,23.5-6.7c4.4-1.4,8.9-2.6,13.4-3.5c4.8-1.1,10.2-2,14.3,0.6c2.7,1.6,4.5,4.6,6.1,7.3c0.9,1.6,1.8,3.2,1.6,5
			c-0.2,1.8-2,3.4-3.7,2.8c-0.7,1.7,0.1,3.6,1,5.3c6.2,12.6-11.9,1.5-15.6,0.5C270.6,214.9,260.2,216,251.3,220.7z"/>
		<path class="st1" d="M111.5,306.1c0.7,0.2,1.5,0.1,2-0.2c0.5-0.4,0.9-1,1.1-1.6c1.1-1.9,3.5-3,5.7-3.1c2.3,0,4.7,0.3,6.8,1.2
			c0.2-0.1,0.7-0.5,0.9-1.3c0.3-1-0.2-1.8-0.3-1.9c-6.4-0.3-10.6-0.9-13.4-1.5c-2.5-0.5-4.1-1.1-7.9-1.7c-1.4-0.2-2.3-0.3-3.6-0.8
			c-2.1-0.7-3-1.5-5.1-2.7c-3-1.8-5.3-3.2-8.3-3.4c-2-0.1-5,0.1-5.1,0.9c0,0.3,0.4,0.7,0.9,0.9c-3,0.9-5.8,2-5.6,2.7
			c0.1,0.5,1.4,0.7,2.3,0.8c3.2,0.4,3.9-0.8,6.2-0.1c1.1,0.3,1.5,0.7,2.9,0.9c1.1,0.1,1.2-0.1,2,0.1c1.2,0.3,1.7,1.2,2.9,2.3
			c0,0,1.1,1,3.1,2.1c3,1.7,4.8,0.6,7.5,1.6C107.8,301.7,109.8,302.9,111.5,306.1z"/>
		<path class="st1" d="M137.8,178.6c1.7-2.5-1.8-4.1-4.2-13.6c-1.6-6.2-1.6-11.4-4.4-12.1c-1.6-0.4-2.8,1-4,0.4
			c-2.1-1.2-0.9-7-0.6-8.2c0.3-1.3,0.7-2.5,0.1-4.1c-0.2-0.6-0.6-1.8-1.8-2.4c-1-0.5-1.6-0.1-4.1-0.3c-1.3-0.1-2.9-0.2-4.5-0.8
			c-1.5-0.6-2.4-1.3-2.9-1.8c-3.1-2.7-4.1-6.4-4.8-9.6c-0.3-1.2-0.4-2.1-0.5-2.7c-1.5-10.1,0.9-13.8-1.7-17.8
			c-1.4-2.1-3.3-3-7.1-4.7c-1.5-0.7-13-5.8-17-2c-2.4,2.3-1.5,7,1.3,11.5c0.1,1.4,0.2,2.9-0.8,4.1c-0.7,0.9-2,1.2-3,1.9
			c-2.4,1.7-2.9,4.7-2.6,7.3c0.6,4.4,3.1,8.3,7,11c2.8,1.9,6.3,3.8,6.2,6.8c-4.7-0.2-6,0.8-6.4,1.5c-1.4,2.4,3.2,8.1,9.2,10.4
			c3,1.1,4.4,0.7,7,2.3c2.4,1.5,5.3,4.4,4.5,6.6c-0.9,2.4-5.7,1.7-6.5,3.9c-0.9,2.5,3.8,7.1,8.3,7c1.8-0.1,2-0.8,3.7-0.9
			c4.1-0.3,6,4.4,10.3,7C124.6,183.1,135.3,182.3,137.8,178.6z"/>
		<path class="st1" d="M173.1,216.5c2.6-1.2,5.6-1.1,8.4-0.7c-1.1-3.7,2.6-7.8,6.4-7.3c0.6,0.1,1.2,0.2,1.8,0
			c1.6-0.7,0.5-3.3-1.2-3.8s-3.6-0.1-5.1-1.1c-3.4-2.3-0.2-8.4-3-11.2c-1.4-1.4-3.9-1.2-5.5,0c-1.5,1.3-2.4,3.3-2.5,5.3
			c-0.1,1.2-0.1,2.5-0.8,3.5c-1,1.2-2.8,1.3-4.1,2.2c-1.7,1.2-1.9,3.5-1.9,5.6l-0.4,7.4c-0.1,1.8,0,6.1,2.6,6.5
			C170.1,223.2,170.7,217.7,173.1,216.5z"/>
		<path class="st1" d="M138,281.6c-0.1-1.5-0.2-3.2,0.3-5.3c0.9-3.8,2.7-4.9,3.6-7.9c0.6-1.9,0.8-4.7-0.7-8.6
			c0.1-0.3,0.3-0.7,0.3-1.3c0-0.4-0.1-0.8-0.2-1.2c-0.7-0.4-1.7-1.2-2.5-2.4c-1.7-2.3-1.8-4.7-1.8-5.6c-0.1-1.8,0.4-3.1,1.1-5.5
			c1.4-4.2,2.3-4.7,2.1-6.3c-0.4-2.3-2.7-4.4-5-3.9c-0.9,0.3-1.7,0.7-2.5,1.1c-2.2-0.3-4.5-0.7-7-1.4c-2.3-0.6-4.4-1.2-6.3-1.8
			c-0.5,0.1-1,0.3-1.4,0.5c-4.2,2.3-3.9,9.4-3.9,10.3c-0.1,0.4-0.3,0.9-0.6,1.4c-0.2,0.4-0.5,0.8-0.8,1.2c-0.4,0.3-0.8,0.5-1.3,0.8
			c-1.9,1-3.8,1.1-5,1.1c-1.9,0.4-4,0.9-6.2,1.7c-1.9,0.7-3.6,1.4-5,2.1c-0.5,0.5-1.3,1.6-1.5,3.2c-0.2,1.3,0.2,2.4,0.5,3.3
			c0.9,2.5,1.9,2.5,2.4,4.5c0.2,0.8,0.2,2,0,4.3c-0.2,3.2-0.5,3.7-0.3,5.1c0.2,1.4,0.9,2.6,1.7,3.7c1.1,1.2,3,2.8,5.7,4
			c2.5,1.1,3,0.6,4.6,1.6c2.5,1.6,2.1,3.2,5.5,7c1.4,1.6,2.7,2.7,3.5,3.3c0,0,2.2,1.9,4.7,3.3c4,2.3,5.9,1.9,10.5,3.6
			c7.3,2.7,9.8,6.7,12.5,5.3c1-0.5,1.8-1.7,1.8-2.7c0-1.6-1.7-2.5-3.1-3.8C138.6,291.8,138.1,284.3,138,281.6z"/>
		<path class="st1" d="M111.8,94.5c-1.5,3.2-2.2,4.8-2,5.4c0.8,3.2,7.4,3.6,7.3,5.4c-0.1,0.7-1.1,0.8-1.7,2.3
			c-0.2,0.4-0.7,1.7-0.2,2.5c0.6,1,2.2,0.1,4.6,1c1.2,0.5,2.6,1.3,2.4,1.8c-0.2,0.9-4.3-0.1-5.3,1.6c-0.6,1.1,0.3,2.8,1.1,3.8
			c2.5,3.1,5.5,1.2,9.8,3.7c3.7,2.2,4.5,5.5,6.4,5c1.4-0.4,2.1-2.6,2.2-2.9c1.4-4.9-4.3-8.4-2.6-12.6c0.7-1.7,1.8-1.4,2.3-3
			c1.2-3.8-4.4-5.8-4.5-10.9c-0.1-4.5,4-6.2,3-9.6c-0.7-2.4-3.5-3.6-5.7-4.6c-2.6-1.2-5.2-1.3-6-1.3c-0.5,0-0.3,0-1.5,0
			c-3.8,0-4.9-0.3-5.7,0.5c-0.3,0.3-0.4,0.8-0.7,1.8c-0.5,2-0.4,3.3-0.5,4.3C114.2,90,113.8,90.1,111.8,94.5z"/>
		<path class="st1" d="M201.2,269.6c4-0.7,9.8-1,14.1-1.7c4.2-0.7,6.6-2.1,2.6-3.6l-10.5-0.3c-2.9-4.5,14-6.2,23.8-9
			c2-0.4,2.9-1,2.4-1.8c-0.5-0.7-2.9-1.5-4.2-2.2c-6.6-3.3,3.6-5.3,8.3-7.5c7-3.3,2.6-8.2-1.7-12.8c-0.7-1.1-2.5-2.4-5.2-3.6
			c-3.2-1.5-9.1-3.1-9-4.3c-16.8-1.5-26.6,1.4-27.8,4.7s2.3,7.3-4.1,9.8l-10.2-3.8c-12.5,5.1,14.2,14.9,8,21
			c-3.6-0.3-7.4-0.8-11-1.5c-3.3-0.7-4.8-1.9-2.5-2.2c-14.9,3.5-9.5,10.5-3.5,16.9c-0.1,0.9-0.3,2.1-1.1,3.3
			c-0.9,1.2-1.9,1.7-1.8,2.5c0.1,0.8,1.3,1.4,1.7,1.6c2.6,1.2,3.8-0.6,6.5,0.2c1.8,0.5,3.4,1.8,4.7,3.2c0.3,0.4,0.7,0.8,1.2,1.2
			c1.2,1,2.9,1.9,6.2,2.9C206.5,282.1,188.4,272,201.2,269.6z"/>
		<path class="st1" d="M191.5,304.8c2.5,0.8,4.7-1.8,7.3-1.8c2.7,0,4.5,2.9,7.1,3.7c3,0.9,5.9-1.3,9-1.2c1.7,0,3.9,0.6,5-0.5
			c1-0.9,0.4-2.5-0.5-3.5c-0.9-1-2.3-1.9-2.8-3c-1.1-1.8-0.3-3.9,0.4-5.8c-1.6-1.8-4.5-2-6.9-1.6c-2.4,0.4-4.9,1.1-7.4,0.6
			c-1.5-0.3-2.8-1.1-4.4-1.2c-1.9,0-3.6,1-5.5,1.3c-2.9,0.5-5.8-0.9-8.7-1.2c-3.8-0.3-7.4,1.4-11.2,0.7c-1.4-0.3-2.7-0.8-4.1-0.7
			c-1.4,0.2-2.6,1.4-1.8,2.4c1.5,2.1,12.7,2.9,15.5,4.2C186,298.7,188.4,303.8,191.5,304.8z"/>
		<path class="st1" d="M169.5,133.4c2-2.1,4.5-4.7,6.2-8.2c1.3-2.8,1.7-5.1,2-7c1-6.2,0.6-7.3,0.9-11.2c0.3-2.9,3-6,5.7-4.8
			c1,0.4,1.1,1.3,2.3,1.5c1.9,0.5,4.7-1.7,5.8-4.3c1.2-2.7-0.2-4.3-0.8-9.4c-0.2-1.8-1.3-10.7,1.8-12.2c1.9-0.9,5.2,1,7,2.1
			c2.2,1.3,3,2.5,4.8,2.6c1.8,0.1,2.3-0.9,3.9-1.2c5-0.9,10.5,6.9,11.1,7.7c3.1,4.4,2.8,7.1,5,7.6c2.7,0.7,4.3-2.1,8.1-2.8
			c2.8-0.5,6.4,1.8,5.5,4.4c-0.6,1.7-2.6,2.4-4.3,2.9c-3.2,1.1-6.6,3-7.7,6.3c-0.6,1.8-0.3,3.9-1.1,5.6c-2,4.3-9,4.2-10.9,8.5
			c-1.4,3.3,1.1,7.2,0.1,10.7c-1,3.1-4.5,4.7-7.8,5.4c-3.2,0.7-6.8,1-9.2,3.2c-2.6,2.3-3.6,6.4-6.9,7.8c-2.3,1-4.9,0.3-7.3-0.5
			c-4.4-1.5-4.4-1.8-7.9-2.5c-5.6-1-8,0.8-9.9-1.1c-1.5-1.5-1.4-4.2-1-5.7C165.4,136.9,166.6,136.3,169.5,133.4z"/>
		<path class="st1" d="M89.5,181.9c2.7-1.8,0.3-7.3-0.9-9.5l-4.8-9.2c-1.3-2.6-2.9-5.4-5.5-6.1c-2.1-0.5-4.2,0.4-6-0.7
			c-1.4-0.8-2.2-2.5-3-4c-1.3-2.5-3.5-4.5-6-5.4c-2.5-0.7-5.4,0.4-6.2,2.9c-0.7,2.4,2.3,4.2,1.4,7.7c-0.3,1.2-0.8,1.5-0.7,2.5
			c0.3,2.1,2.9,2.7,2.7,3.8c-0.2,1.5-5.1,1.3-5.9,3.6c-0.4,1,0.2,2.2,0.8,3.2c0.2,0.4,0.5,1,1.1,1.6c1.2,1.2,2.8,1.4,3.3,1.4
			c1.3-0.3,3.4-0.4,5.2,0.6c2.9,1.7,2.4,4.9,4.6,5.9c2.9,1.3,5.2-3.6,9.9-3.4C84.6,176.9,87.5,183.2,89.5,181.9z"/>
		<path class="st1" d="M167.2,154.9c-0.6,1.5-0.4,3.6,0.5,5.4c1.1,2.2,2.8,3.8,4.3,5.6c2.6,3.3,4.2,7.4,6.3,11.1
			c7.3,12.9,21.8,19.8,30.7,14.8c1.6-1,3.1-2.2,4.9-2.6c4.2-1,9.3,2.5,14,4.6s10.7,2,11.3-3.2c0.4-3.3-1.6-7.5-1.1-10.8
			c6.1,4,13.1,1.9,14.9-4.5c-2.2-3.6-5.9-5.1-9.1-6.7c-3.3-1.6-7-4.7-7.5-8.7c1.2,0.1,1.7-0.2,1.9-0.5c1.3-1.6-1.4-7.5-6.2-9.9
			c-0.4-0.2-0.9-0.6-1.7-0.7c-3.1-0.4-5.7,3.7-9.2,2.6c0.9-2.3-1.3-6.2-3.8-7.2c-2.4-1.1-4.6,0.2-6,2c-1.4,1.9-2.2,4.3-3.5,6.2
			c-2.8,4.2-7.6,6.1-12.9,5c1.5-0.9,0.2-4.7-1.8-5.7c-2-1-3.8-0.1-5.2,1c-3,2.4-5.4,5.9-9,7.2C174.4,161.7,171.4,157.5,167.2,154.9z
			"/>
	</g>
</g>
</svg>
